# xmcd CD database file generated by MAGIX-FreeDB- v3.0beta1
#
# Track frame offsets:
#	150
#	20424
#	38091
#	56467
#	76388
#	94748
#	110477
#	135898
#	155349
#	176639
#	198479
#	215493
#	238212
#	261138
#	282900
#	299651
#	319552
#
# Disc length: 4506
#
# Revision: 23
# Processed by: cddbd v1.5.2PL0 Copyright (c) Steve Scherf et al.
# Submitted via: MAGIX-FreeDB- v3.0beta1
#
DISCID=f0119811
DTITLE=Herbert Grönemeyer - Was Muss Muss - Best Of - CD 1
DYEAR=2008
DGENRE=Deutsch
TTITLE0=Mensch
TTITLE1=Kopf hoch, tanzen
TTITLE2=Glück
TTITLE3=Fisch im Netz
TTITLE4=Fanatisch
TTITLE5=Demo (Letzter Tag)
TTITLE6=Zum Meer
TTITLE7=Der Weg
TTITLE8=Bleibt alles anders
TTITLE9=Chaos
TTITLE10=Du bist die
TTITLE11=Land unter
TTITLE12=Zeit, dass sich was dreht (feat. Amadou and Mariam)
TTITLE13=Ich dreh' mich um dich
TTITLE14=Die Härte
TTITLE15=Leb in meiner Welt
TTITLE16=Stück vom Himmel
EXTD=By YEAR: 2008
EXTT0=By YEAR: 2008
EXTT1=By YEAR: 2008
EXTT2=By YEAR: 2008
EXTT3=By YEAR: 2008
EXTT4=By YEAR: 2008
EXTT5=By YEAR: 2008
EXTT6=By YEAR: 2008
EXTT7=By YEAR: 2008
EXTT8=By YEAR: 2008
EXTT9=By YEAR: 2008
EXTT10=By YEAR: 2008
EXTT11=By YEAR: 2008
EXTT12=By YEAR: 2008
EXTT13=By YEAR: 2008
EXTT14=By YEAR: 2008
EXTT15=By YEAR: 2008
EXTT16=By YEAR: 2008
PLAYORDER=
